# xmcd CD database file
#
# Track frame offsets:
#	150
#	21830
#	47209
#	76032
#	87162
#	110311
#	128954
#	163574
#	181173
#	197741
#	225853
#	243093
#	258364
#	279840
#	305219
#	335312
#	349913
#
# Disc length: 4807 seconds
#
# Revision: 0
# Processed by: cddbd v1.4PL0 Copyright (c) Steve Scherf et al.
# Submitted via: Feurio! 1.63 - http://www.feurio.com
#
DISCID=d712c511
DTITLE=Various Artist - St.James Infirmary Blues
DYEAR=1900
DGENRE=
TTITLE0=Louis Armstrong - St. James Infirmary
TTITLE1=Preservation Hall Jazz Band - St. James Infirmary
TTITLE2=Artie Shaw - St. James Infirmary, Parts 1 and 2
TTITLE3=Bobby Blue Bland - St. James Infirmary
TTITLE4=Eric Burdon and the Animals - St. James Infirmary
TTITLE5=Della Reese and Sy Oliver Orch - St James Infirmary
TTITLE6=Harry Connick Jr. - St. James Infirmary Blues
TTITLE7=Doc Watson - St. James Infirmary (Live)
TTITLE8=Jack Teagarden - St. James Infirmary Blues
TTITLE9=Joe Cocker - St. James Infirmary Blues
TTITLE10=Andy Griffith - St. James Infirmary
TTITLE11=Limeliters - Gambler's Blues
TTITLE12=lou  rawls - -st james infirmiry
TTITLE13=Preservation Hall Jazz Band - St. James Infirmary
TTITLE14=Red Garland - Saint James Infirmary
TTITLE15=Stan Kenton - St. James Infirmary Blues
TTITLE16=White Stripes - St. James Infirmary Blues
EXTD=
EXTT0=
EXTT1=
EXTT2=
EXTT3=
EXTT4=
EXTT5=
EXTT6=
EXTT7=
EXTT8=
EXTT9=
EXTT10=
EXTT11=
EXTT12=
EXTT13=
EXTT14=
EXTT15=
EXTT16=
PLAYORDER=
